<svg width="32" height="32" viewBox="0 0 32 32" fill="none" xmlns="http://www.w3.org/2000/svg">
<path d="M16 22.8571C15.3688 22.8571 14.8571 22.3455 14.8571 21.7143V17.1429H10.2857C9.65453 17.1429 9.14286 16.6312 9.14286 16C9.14286 15.3688 9.65453 14.8571 10.2857 14.8571H14.8571V10.2857C14.8571 9.65453 15.3688 9.14286 16 9.14286C16.6312 9.14286 17.1429 9.65453 17.1429 10.2857V14.8571H21.7143C22.3455 14.8571 22.8571 15.3688 22.8571 16C22.8571 16.6312 22.3455 17.1429 21.7143 17.1429H17.1429V21.7143C17.1429 22.3455 16.6312 22.8571 16 22.8571Z" fill="#8E8E8E"/>
<path fill-rule="evenodd" clip-rule="evenodd" d="M16 32C24.8366 32 32 24.8366 32 16C32 7.16344 24.8366 0 16 0C7.16344 0 0 7.16344 0 16C0 24.8366 7.16344 32 16 32ZM16 29.7143C23.5742 29.7143 29.7143 23.5742 29.7143 16C29.7143 8.42581 23.5742 2.28571 16 2.28571C8.42581 2.28571 2.28571 8.42581 2.28571 16C2.28571 23.5742 8.42581 29.7143 16 29.7143Z" fill="#8E8E8E"/>
</svg>